<svg width="33" height="33" viewBox="0 0 33 33" fill="none" xmlns="http://www.w3.org/2000/svg">
<path fill-rule="evenodd" clip-rule="evenodd" d="M7.26786 33.0006C11.2818 33.0006 14.5357 29.7466 14.5357 25.7327H14.5358V22.2744C14.5358 20.1704 12.8302 18.4648 10.7262 18.4648H7.26791C7.26789 18.4648 7.26787 18.4648 7.26786 18.4648C3.25393 18.4648 0 21.7188 0 25.7327C0 29.7466 3.25393 33.0006 7.26786 33.0006Z" fill="#1A1A1A"/>
<path fill-rule="evenodd" clip-rule="evenodd" d="M25.7321 33.0006C21.7182 33.0006 18.4643 29.7466 18.4643 25.7327H18.4643V22.2744C18.4643 20.1704 20.1699 18.4648 22.2738 18.4648H25.7321C25.7321 18.4648 25.7321 18.4648 25.7321 18.4648C29.7461 18.4648 33 21.7188 33 25.7327C33 29.7466 29.7461 33.0006 25.7321 33.0006Z" fill="#1A1A1A"/>
<path fill-rule="evenodd" clip-rule="evenodd" d="M25.7321 0.000414499C21.7182 0.000414499 18.4643 3.25435 18.4643 7.26827H18.4643V10.7266C18.4643 12.8306 20.1699 14.5361 22.2738 14.5361H25.7321C25.7321 14.5361 25.7321 14.5361 25.7321 14.5361C29.7461 14.5361 33 11.2822 33 7.26827C33 3.25435 29.7461 0.000414499 25.7321 0.000414499Z" fill="#1A1A1A"/>
<path fill-rule="evenodd" clip-rule="evenodd" d="M14.5357 12.5716V17.5688L14.5358 17.5537V12.5716H14.5357ZM12.307 19.8387H7.16622C7.20004 19.8392 7.23392 19.8394 7.26786 19.8394H7.26791H12.25C12.2691 19.8394 12.2881 19.8392 12.307 19.8387ZM3.92857 12.5709H3.92859C3.92889 10.7269 5.42382 9.23214 7.26787 9.23214C9.10885 9.23214 10.6019 10.7219 10.6071 12.5617C10.6071 12.5652 10.6071 12.5687 10.6071 12.5723C10.6071 13.6571 11.4866 14.5366 12.5714 14.5366C13.6562 14.5366 14.5357 13.6571 14.5357 12.5723C14.5357 12.5718 14.5357 12.5713 14.5357 12.5709H14.5357C14.5353 8.55727 11.2816 5.30371 7.26786 5.30371C3.25416 5.30371 0.000375961 8.55727 0 12.5709V12.5723C0 13.6571 0.879441 14.5366 1.96429 14.5366C3.04913 14.5366 3.92857 13.6571 3.92857 12.5723L3.92857 12.5709Z" fill="#1A1A1A"/>
</svg>
